<svg xmlns="http://www.w3.org/2000/svg" viewBox="0 0 720 520" role="img" aria-labelledby="t d"><title id="t">Karuvadu dry fish</title><desc id="d">Traditional dry fish and dried seafood arranged for South Indian coastal cooking.</desc><defs><radialGradient id="bg" cx="50%" cy="25%" r="82%"><stop stop-color="#dbe7d0"/><stop offset=".55" stop-color="#607d62"/><stop offset="1" stop-color="#203525"/></radialGradient><filter id="s"><feDropShadow dx="0" dy="16" stdDeviation="15" flood-color="#071109" flood-opacity=".42"/></filter></defs><rect width="720" height="520" rx="34" fill="url(#bg)"/><g filter="url(#s)"><ellipse cx="360" cy="394" rx="216" ry="40" fill="#081108" opacity=".34"/><path d="M124 326c113-125 324-142 480-10-136 95-346 111-480 10z" fill="#2f582d"/><path d="M160 322c148 13 282 15 402-10" stroke="#d7d98c" stroke-width="4" opacity=".52"/><g fill="#c8b48b" stroke="#4c3424" stroke-width="7"><path d="M151 222c117-103 276-92 364 0-104 43-233 43-364 0z"/><path d="M250 301c86-80 205-69 270 3-79 29-171 30-270-3z"/><path d="M410 189l95-62-27 98z"/><path d="M520 302l78-50-21 79z"/></g><g stroke="#5d4028" stroke-width="5" fill="none"><path d="M214 205c80 35 163 34 248-1M302 291c61 24 117 25 171 2M318 222l54 55M264 207l-42 62M402 204l68 50"/></g><circle cx="207" cy="213" r="8" fill="#2d1a10"/><circle cx="307" cy="292" r="7" fill="#2d1a10"/><path d="M113 177c45-23 77-55 95-94" stroke="#d9c07e" stroke-width="6" fill="none"/></g></svg>
