<svg xmlns="http://www.w3.org/2000/svg" viewBox="0 0 720 520" role="img" aria-labelledby="t d"><title id="t">Karuppatti and Panangarkandu</title><desc id="d">Traditional palm jaggery blocks and palm candy crystals arranged in a brass bowl.</desc><defs><radialGradient id="bg" cx="45%" cy="25%" r="78%"><stop stop-color="#ffe1a8"/><stop offset=".55" stop-color="#b76d24"/><stop offset="1" stop-color="#4a2513"/></radialGradient><linearGradient id="brass" x1="0" x2="1"><stop stop-color="#8b5420"/><stop offset=".45" stop-color="#f2c16f"/><stop offset="1" stop-color="#7a4318"/></linearGradient><filter id="s"><feDropShadow dx="0" dy="16" stdDeviation="15" flood-color="#241006" flood-opacity=".42"/></filter></defs><rect width="720" height="520" rx="34" fill="url(#bg)"/><g filter="url(#s)"><ellipse cx="360" cy="405" rx="190" ry="40" fill="#2a1208" opacity=".35"/><path d="M169 282c40 116 340 116 382 0 0 79-53 151-191 151s-191-72-191-151z" fill="url(#brass)"/><ellipse cx="360" cy="280" rx="202" ry="68" fill="#f1c16f" stroke="#6f3a14" stroke-width="7"/><g fill="#5a2c13" stroke="#2d1408" stroke-width="5"><rect x="214" y="174" width="98" height="88" rx="16" transform="rotate(-10 263 218)"/><rect x="319" y="141" width="107" height="96" rx="17" transform="rotate(8 372 189)"/><rect x="420" y="193" width="91" height="82" rx="15" transform="rotate(-7 465 234)"/></g><g fill="#fff1be" opacity=".92"><path d="M232 303l24-28 27 26-24 28z"/><path d="M454 301l20-24 26 18-17 29z"/><path d="M350 300l29-31 31 30-30 31z"/><circle cx="302" cy="296" r="13"/><circle cx="412" cy="306" r="12"/></g><path d="M139 192c42-22 76-57 101-104" stroke="#466f32" stroke-width="9" fill="none" stroke-linecap="round"/><path d="M116 155c54 3 84 15 112 42" stroke="#466f32" stroke-width="9" fill="none" stroke-linecap="round"/></g></svg>
