<svg xmlns="http://www.w3.org/2000/svg" viewBox="0 0 720 520" role="img" aria-labelledby="t d"><title id="t">Pickle Oorugai jar</title><desc id="d">A premium glass pickle jar filled with red South Indian oorugai, chilli, garlic and curry leaves.</desc><defs><radialGradient id="bg" cx="50%" cy="30%" r="75%"><stop stop-color="#ffd09a"/><stop offset=".55" stop-color="#aa321e"/><stop offset="1" stop-color="#42130d"/></radialGradient><linearGradient id="glass" x1="0" x2="1"><stop stop-color="#ffe7c8" stop-opacity=".65"/><stop offset=".45" stop-color="#c5301c"/><stop offset="1" stop-color="#68170e"/></linearGradient><filter id="s"><feDropShadow dx="0" dy="16" stdDeviation="16" flood-color="#1d0904" flood-opacity=".4"/></filter></defs><rect width="720" height="520" rx="34" fill="url(#bg)"/><g filter="url(#s)"><ellipse cx="360" cy="421" rx="168" ry="34" fill="#250a04" opacity=".35"/><path d="M245 128h230l-25 262c-7 72-173 72-180 0z" fill="url(#glass)" stroke="#371209" stroke-width="8"/><path d="M226 92h268v64H226z" rx="18" fill="#3b1c10"/><ellipse cx="360" cy="92" rx="134" ry="28" fill="#e0ad62"/><path d="M284 215c64-31 142-24 183 22" stroke="#ffb066" stroke-width="12" fill="none" opacity=".68"/><circle cx="318" cy="248" r="20" fill="#ffc370"/><circle cx="405" cy="286" r="15" fill="#f8a34e"/><path d="M176 334c75-34 124-25 156 28" stroke="#466f32" stroke-width="13" fill="none" stroke-linecap="round"/><path d="M532 272c-46 20-75 48-87 86" stroke="#466f32" stroke-width="13" fill="none" stroke-linecap="round"/><path d="M144 244c44-38 83-52 119-43" stroke="#f0c06a" stroke-width="8" fill="none"/></g></svg>
