<svg xmlns="http://www.w3.org/2000/svg" viewBox="0 0 720 520" role="img" aria-labelledby="t d"><title id="t">Uppukandam dry meat</title><desc id="d">Village-style dry meat pieces with pepper, chilli and smoked spices on a banana leaf.</desc><defs><radialGradient id="bg" cx="46%" cy="25%" r="80%"><stop stop-color="#e7b47f"/><stop offset=".55" stop-color="#7d4525"/><stop offset="1" stop-color="#2e160d"/></radialGradient><linearGradient id="leaf" x1="0" x2="1"><stop stop-color="#23451d"/><stop offset=".5" stop-color="#7c8f3b"/><stop offset="1" stop-color="#1d3517"/></linearGradient><filter id="s"><feDropShadow dx="0" dy="16" stdDeviation="15" flood-color="#160804" flood-opacity=".45"/></filter></defs><rect width="720" height="520" rx="34" fill="url(#bg)"/><g filter="url(#s)"><path d="M120 351c95-129 277-159 486-30-146 94-335 116-486 30z" fill="url(#leaf)"/><path d="M157 347c134 16 285 15 405-12" stroke="#d8d48a" stroke-width="4" opacity=".5"/><g fill="#6f3c22" stroke="#2a1208" stroke-width="7"><path d="M178 247c25-60 124-74 171-18-22 74-136 88-171 18z"/><path d="M320 216c43-54 139-41 171 19-38 58-136 67-171-19z"/><path d="M401 300c32-49 118-53 159-3-28 55-119 71-159 3z"/><path d="M242 320c38-50 134-46 168 11-41 49-129 55-168-11z"/></g><path d="M213 238c37 15 74 15 105-1M348 226c34 18 73 19 108 3M278 328c42 13 75 12 108-4M431 301c37 12 72 10 99-5" stroke="#d7a56b" stroke-width="7" opacity=".65"/><g fill="#f3c36c"><circle cx="146" cy="213" r="7"/><circle cx="568" cy="223" r="8"/><circle cx="512" cy="382" r="6"/></g><path d="M151 174c43 4 80 22 110 54" stroke="#d44d28" stroke-width="7" fill="none" stroke-linecap="round"/></g></svg>
